<svg width="63" height="63" viewBox="0 0 63 63" fill="none" xmlns="http://www.w3.org/2000/svg">
<path d="M60.1853 14.9107L38.503 36.6357C37.665 37.4758 36.635 38.0991 35.5021 38.4519L30.8949 39.9941C29.8015 40.3029 28.6455 40.3146 27.5461 40.0279C26.4467 39.7412 25.4437 39.1666 24.6403 38.3632C23.8369 37.5598 23.2622 36.5567 22.9756 35.4573C22.6889 34.3579 22.7005 33.2019 23.0093 32.1085L24.5516 27.5013C24.9033 26.3688 25.5254 25.3388 26.3642 24.5004L48.0892 2.8146C48.2883 2.61568 48.424 2.36218 48.479 2.08615C48.5341 1.81012 48.5061 1.52396 48.3985 1.26386C48.2909 1.00376 48.1086 0.781409 47.8747 0.62492C47.6407 0.46843 47.3656 0.384835 47.0841 0.384705H9.96151C7.31955 0.384705 4.7858 1.43422 2.91766 3.30236C1.04951 5.17051 0 7.70426 0 10.3462V53.0384C0 55.6803 1.04951 58.2141 2.91766 60.0822C4.7858 61.9504 7.31955 62.9999 9.96151 62.9999H52.6537C55.2956 62.9999 57.8294 61.9504 59.6975 60.0822C61.5657 58.2141 62.6152 55.6803 62.6152 53.0384V15.9158C62.6151 15.6343 62.5315 15.3592 62.375 15.1252C62.2185 14.8913 61.9961 14.709 61.736 14.6014C61.4759 14.4938 61.1898 14.4658 60.9137 14.5208C60.6377 14.5759 60.3842 14.7116 60.1853 14.9107Z" fill="url(#paint0_linear_0_110)"/>
<defs>
<linearGradient id="paint0_linear_0_110" x1="31.3076" y1="0.384705" x2="31.3076" y2="62.9999" gradientUnits="userSpaceOnUse">
<stop/>
<stop offset="0.28125" stop-color="#FF008D"/>
<stop offset="0.619792" stop-color="#0097FF"/>
<stop offset="1"/>
</linearGradient>
</defs>
</svg>
